Coordinates
version=1
nRows=51
nColumns=24
inDegrees=no

Units are S.I. units (second, meters, Newtons, ...)
If the header above contains a line with 'inDegrees', this indicates whether rotational values are in degrees (yes) or radians (no).

endheader
time	pelvis_tilt	pelvis_list	pelvis_rotation	pelvis_tx	pelvis_ty	pelvis_tz	hip_flexion_r	hip_adduction_r	hip_rotation_r	knee_angle_r	ankle_angle_r	subtalar_angle_r	mtp_angle_r	hip_flexion_l	hip_adduction_l	hip_rotation_l	knee_angle_l	ankle_angle_l	subtalar_angle_l	mtp_angle_l	lumbar_extension	lumbar_bending	lumbar_rotation
20.01	0.38991	-0.146356	0.0551891	0.799062	1.0652	0.543885	-0.064411	0.10544	-0.237525	0.338844	-0.026056	-0.0396475	-0.000753333	-0.440797	-0.296464	-0.210773	0.78978	-0.170292	-0.370373	-0.00212676	-0.644289	0.157133	-0.0343226
20.02	0.391189	-0.148814	0.0560744	0.799092	1.06578	0.546229	-0.0714342	0.10938	-0.23664	0.347907	-0.0136383	-0.039671	-0.000753333	-0.417312	-0.304818	-0.202058	0.837302	-0.212392	-0.396655	-0.00212676	-0.646245	0.160066	-0.0291317
20.03	0.393144	-0.150225	0.056825	0.798817	1.06641	0.54859	-0.0828017	0.113617	-0.2345	0.356861	0.00246874	-0.0417196	-0.000753333	-0.385447	-0.312921	-0.189227	0.898947	-0.259493	-0.409262	-0.00212676	-0.649015	0.161521	-0.0225735
20.04	0.394744	-0.149236	0.0578879	0.798415	1.06711	0.550841	-0.0950702	0.116367	-0.231527	0.361264	0.0165026	-0.046648	-0.000753333	-0.355054	-0.316391	-0.17497	0.951573	-0.288411	-0.406502	-0.00212676	-0.651254	0.160329	-0.0179767
20.05	0.395563	-0.146918	0.0599955	0.797838	1.06787	0.552904	-0.107044	0.118448	-0.227271	0.363339	0.0284338	-0.0550852	-0.000753333	-0.324994	-0.317085	-0.159768	0.996699	-0.294362	-0.40535	-0.00212676	-0.652675	0.158175	-0.0154448
20.06	0.396491	-0.143539	0.0624432	0.797051	1.0688	0.554783	-0.119767	0.119707	-0.221251	0.364676	0.0389393	-0.0656463	-0.000753333	-0.294937	-0.315973	-0.145428	1.03759	-0.277539	-0.406613	-0.00212676	-0.654278	0.155292	-0.013998
20.07	0.398601	-0.138493	0.0639743	0.79613	1.07007	0.556496	-0.134761	0.118863	-0.215032	0.36448	0.0483547	-0.0741171	-0.000753333	-0.267392	-0.311868	-0.133627	1.07177	-0.249467	-0.406669	-0.00212676	-0.656994	0.150712	-0.0131981
20.08	0.401554	-0.13175	0.0643204	0.795156	1.07167	0.558066	-0.151982	0.115547	-0.210798	0.362234	0.0575205	-0.0775237	-0.000753333	-0.24243	-0.304513	-0.124003	1.0983	-0.226139	-0.406698	-0.00212676	-0.660337	0.144253	-0.0128177
20.09	0.404501	-0.123673	0.0640132	0.794158	1.0735	0.559513	-0.170347	0.110167	-0.209071	0.358268	0.0672533	-0.0752435	-0.000753333	-0.21889	-0.294801	-0.115977	1.11787	-0.211399	-0.406972	-0.00212676	-0.663411	0.136329	-0.0126398
20.1	0.407263	-0.114679	0.0635005	0.793147	1.07549	0.560849	-0.189421	0.1033	-0.20915	0.352911	0.077532	-0.0682761	-0.000753333	-0.19647	-0.283797	-0.109777	1.13143	-0.200125	-0.407161	-0.00212676	-0.66604	0.127444	-0.0123887
20.11	0.409729	-0.10536	0.0627787	0.792138	1.07758	0.562097	-0.208998	0.0958448	-0.209871	0.345976	0.087109	-0.0599536	-0.000753333	-0.175259	-0.272401	-0.10589	1.13955	-0.188241	-0.407332	-0.00212676	-0.668206	0.118147	-0.0117256
20.12	0.411651	-0.0964105	0.0613028	0.791139	1.07969	0.563321	-0.228627	0.0887844	-0.209641	0.3374	0.0951071	-0.0530673	-0.000753333	-0.155331	-0.261435	-0.104938	1.14237	-0.175476	-0.407527	-0.00212676	-0.669788	0.108829	-0.0101194
20.13	0.413149	-0.0881944	0.0585325	0.790142	1.08179	0.564569	-0.248163	0.0824669	-0.207439	0.327586	0.101992	-0.0473974	-0.000753333	-0.136884	-0.251365	-0.107284	1.14008	-0.162561	-0.407715	-0.00212676	-0.67098	0.0995712	-0.00704697
20.14	0.414618	-0.080503	0.0547677	0.789126	1.08385	0.565794	-0.26798	0.0765378	-0.203822	0.316759	0.108372	-0.0419473	-0.000753333	-0.12007	-0.241964	-0.112372	1.13297	-0.149275	-0.4079	-0.00212676	-0.672228	0.0903754	-0.00260614
20.15	0.416115	-0.0729157	0.0507536	0.788093	1.08584	0.566929	-0.288228	0.0705352	-0.200315	0.304993	0.114206	-0.0363141	-0.000753333	-0.104778	-0.232755	-0.119306	1.12107	-0.135758	-0.408087	-0.00212676	-0.673593	0.0812386	0.00247574
20.16	0.41749	-0.0654433	0.0464092	0.787057	1.0877	0.568024	-0.308541	0.0644198	-0.197485	0.29276	0.119338	-0.0303138	-0.000753333	-0.0909068	-0.223884	-0.128045	1.10446	-0.123225	-0.408277	-0.00212676	-0.674875	0.071955	0.00783044
20.17	0.419025	-0.0586639	0.0407053	0.786004	1.0894	0.569195	-0.32874	0.05852	-0.194407	0.2807	0.124287	-0.0239132	-0.000753333	-0.0789117	-0.216093	-0.139404	1.08362	-0.112104	-0.408456	-0.00212676	-0.676362	0.0623671	0.0141283
20.18	0.420877	-0.052844	0.0334924	0.784917	1.09094	0.570431	-0.348758	0.0529181	-0.190909	0.269178	0.130142	-0.0165067	-0.000753333	-0.0689539	-0.209583	-0.15324	1.05904	-0.101345	-0.408636	-0.00212676	-0.678265	0.0527381	0.0216745
20.19	0.422474	-0.0473465	0.0261508	0.783802	1.09225	0.571601	-0.368177	0.0471919	-0.188123	0.25822	0.136858	-0.00765988	-0.000753333	-0.0601367	-0.203585	-0.168056	1.03061	-0.0904678	-0.408861	-0.00212676	-0.680066	0.0433696	0.0290371
20.2	0.423476	-0.0416934	0.019473	0.782666	1.09329	0.572642	-0.386726	0.0410797	-0.186294	0.247773	0.143275	0.00156425	-0.000753333	-0.0519626	-0.197568	-0.183283	0.998027	-0.0801144	-0.408989	-0.00212676	-0.681439	0.0343351	0.0349256
20.21	0.424218	-0.0364342	0.0129919	0.781511	1.09409	0.573581	-0.404578	0.0351007	-0.184339	0.237838	0.149678	0.0100736	-0.000753333	-0.0449507	-0.192022	-0.199554	0.961318	-0.070676	-0.40907	-0.00212676	-0.682638	0.025946	0.039929
20.22	0.424835	-0.032111	0.00659045	0.78035	1.09464	0.574436	-0.421846	0.0299113	-0.181099	0.228337	0.156719	0.0170923	-0.000753333	-0.0392331	-0.187316	-0.216642	0.920808	-0.0622414	-0.409726	-0.00212676	-0.683723	0.0185751	0.0448447
20.23	0.424967	-0.0283623	0.000943656	0.779188	1.09493	0.575173	-0.438329	0.0254486	-0.176634	0.219227	0.163161	0.0216506	-0.000753333	-0.0341597	-0.182813	-0.233255	0.876657	-0.0549826	-0.409532	-0.00212676	-0.684408	0.0121279	0.0490999
20.24	0.424511	-0.0246957	-0.00326124	0.778022	1.09495	0.575742	-0.45407	0.0214251	-0.172732	0.210516	0.168252	0.0244489	-0.000753333	-0.0293931	-0.177832	-0.248403	0.828996	-0.0490091	-0.403785	-0.00212676	-0.684696	0.0065116	0.0517536
20.25	0.424099	-0.0211722	-0.00596822	0.776885	1.09475	0.576114	-0.469917	0.017897	-0.171059	0.201923	0.172791	0.0272406	-0.000753333	-0.0256543	-0.172374	-0.262085	0.778198	-0.0448709	-0.390362	-0.00212676	-0.685037	0.00189378	0.0529203
20.26	0.424027	-0.0180247	-0.00779273	0.775826	1.09435	0.576323	-0.486287	0.0149075	-0.171164	0.193201	0.177027	0.0303995	-0.000753333	-0.0235285	-0.166577	-0.274864	0.724502	-0.042952	-0.372067	-0.00212676	-0.685498	-0.00183718	0.0534459
20.27	0.423571	-0.015242	-0.00915477	0.774854	1.09371	0.576411	-0.502481	0.012347	-0.171828	0.184581	0.18087	0.0337388	-0.000753333	-0.0223682	-0.160343	-0.287077	0.667876	-0.0410771	-0.349524	-0.00212676	-0.685486	-0.00499911	0.0535949
20.28	0.423014	-0.012552	-0.00957427	0.773987	1.09283	0.576352	-0.518983	0.0103054	-0.173218	0.175446	0.185125	0.0377316	-0.000753333	-0.0223395	-0.153444	-0.298534	0.608833	-0.0356948	-0.319695	-0.00212676	-0.685181	-0.00762906	0.0529827
20.29	0.422699	-0.00991839	-0.00877211	0.773205	1.09176	0.576108	-0.535515	0.00889724	-0.17576	0.165613	0.19025	0.0422231	-0.000753333	-0.0235866	-0.145789	-0.308679	0.548373	-0.0267259	-0.2835	-0.00212676	-0.684744	-0.00958497	0.0516677
20.3	0.419081	-0.00790605	-0.0080466	0.772347	1.09026	0.575735	-0.546654	0.00755622	-0.178721	0.159218	0.195562	0.0460722	-0.000753333	-0.0222196	-0.137701	-0.317284	0.486705	-0.016737	-0.245028	-0.00212676	-0.681797	-0.0109487	0.0501925
20.31	0.409769	-0.00661465	-0.00858421	0.771316	1.08818	0.575313	-0.549126	0.00542743	-0.181667	0.159551	0.20114	0.0490463	-0.000753333	-0.0157669	-0.129355	-0.324732	0.423941	-0.0063095	-0.20395	-0.00212676	-0.67491	-0.012232	0.0486607
20.32	0.398797	-0.00516711	-0.00968911	0.770266	1.08581	0.574846	-0.548067	0.00242293	-0.185396	0.163405	0.208059	0.0519468	-0.000753333	-0.00846491	-0.120324	-0.33076	0.361659	0.004632	-0.159009	-0.00212676	-0.666893	-0.0140812	0.0468586
20.33	0.389531	-0.00316589	-0.0107845	0.769363	1.0834	0.574328	-0.547993	-0.00119112	-0.190448	0.167919	0.216456	0.0551552	-0.000753333	-0.00357308	-0.110486	-0.334491	0.302018	0.0150688	-0.113844	-0.00212676	-0.659911	-0.0167401	0.0450153
20.34	0.381258	-0.00104359	-0.0125827	0.768634	1.08092	0.573762	-0.548246	-0.00554976	-0.196193	0.174114	0.225276	0.0584949	-0.000753333	-0.000194337	-0.100316	-0.335923	0.246309	0.0253482	-0.0723414	-0.00212676	-0.65343	-0.020011	0.0436708
20.35	0.373554	0.000926737	-0.0152842	0.768099	1.07836	0.573101	-0.548186	-0.0106878	-0.201694	0.182618	0.233499	0.0614375	-0.000753333	0.00213736	-0.0902157	-0.335199	0.195595	0.0366741	-0.0355785	-0.00212676	-0.647062	-0.0234654	0.0430527
20.36	0.366728	0.00260161	-0.0183852	0.767819	1.07578	0.5723	-0.548176	-0.0162114	-0.206376	0.193152	0.241121	0.0634807	-0.000753333	0.00363037	-0.0807448	-0.332246	0.152033	0.0489017	-0.00420249	-0.00212676	-0.640716	-0.0266309	0.0431361
20.37	0.361073	0.00353846	-0.0223881	0.767583	1.07328	0.57141	-0.548209	-0.0220654	-0.210337	0.205853	0.248446	0.0650319	-0.000753333	0.00459903	-0.072829	-0.328795	0.117798	0.0611067	0.0219233	-0.00212676	-0.635939	-0.0293895	0.0439519
20.38	0.356523	0.00393184	-0.0277294	0.767409	1.07089	0.570477	-0.548215	-0.0287819	-0.213804	0.220859	0.255181	0.0668759	-0.000753333	0.00592741	-0.0669236	-0.328122	0.0957084	0.0713164	0.0443584	-0.00212676	-0.632491	-0.0321066	0.0458864
20.39	0.351552	0.00540227	-0.0326259	0.768239	1.06834	0.569433	-0.548224	-0.0366825	-0.21594	0.237724	0.261361	0.0687206	-0.000753333	0.010991	-0.0625345	-0.331501	0.0910953	0.0759329	0.0638949	-0.00212676	-0.623121	-0.0354662	0.049597
20.4	0.346016	0.00870885	-0.0359958	0.770047	1.06568	0.568301	-0.548237	-0.045705	-0.216511	0.256062	0.266693	0.0694884	-0.000753333	0.0201948	-0.0589845	-0.336762	0.104421	0.0725701	0.0790745	-0.00212676	-0.607939	-0.0401053	0.0538669
20.41	0.342275	0.0123556	-0.0393923	0.771318	1.06339	0.567178	-0.548248	-0.0555976	-0.216994	0.276256	0.269393	0.068472	-0.000753333	0.0285835	-0.0561187	-0.341676	0.127794	0.0620531	0.0868384	-0.00212676	-0.598691	-0.0457457	0.0560963
20.42	0.340542	0.0153826	-0.043191	0.771951	1.06152	0.566006	-0.54826	-0.0657291	-0.217548	0.298372	0.26787	0.0649627	-0.000753333	0.034366	-0.0537776	-0.346245	0.155252	0.0472791	0.0844249	-0.00212676	-0.596325	-0.0513461	0.0565288
20.43	0.338743	0.0187027	-0.0460739	0.773188	1.05968	0.564643	-0.548271	-0.0756977	-0.216237	0.321562	0.261712	0.0579302	-0.000753333	0.0401228	-0.0510691	-0.34983	0.185429	0.0317408	0.0709664	-0.00212676	-0.591245	-0.0566718	0.0574132
20.44	0.337633	0.0225341	-0.0487663	0.774656	1.05804	0.563161	-0.54828	-0.0860646	-0.213447	0.345786	0.250566	0.0470599	-0.000753333	0.0442698	-0.0471062	-0.349528	0.213109	0.0165594	0.0477678	-0.00212676	-0.586279	-0.0624935	0.0582044
20.45	0.339488	0.0263064	-0.0527004	0.775292	1.05702	0.561717	-0.5483	-0.097532	-0.211908	0.372154	0.234198	0.0330119	-0.000753333	0.0426489	-0.041619	-0.343514	0.23223	-0.00159313	0.0188148	-0.00212676	-0.59008	-0.0694859	0.0570586
20.46	0.342409	0.0315035	-0.0560551	0.776369	1.05632	0.560192	-0.548314	-0.109937	-0.2104	0.400689	0.213519	0.0162693	-0.000753333	0.0381727	-0.0341408	-0.333021	0.247584	-0.0246156	-0.0105238	-0.00212676	-0.593376	-0.0779936	0.055848
20.47	0.345376	0.0386802	-0.0581077	0.77859	1.05576	0.558509	-0.548285	-0.123079	-0.207454	0.431294	0.188671	-0.00328769	-0.000753333	0.0333697	-0.0249537	-0.320027	0.265028	-0.0449698	-0.0378245	-0.00212676	-0.59082	-0.0879208	0.0558513
20.48	0.351745	0.0458876	-0.0612961	0.780336	1.05589	0.556826	-0.548369	-0.137396	-0.206063	0.465218	0.15777	-0.0258779	-0.000753333	0.024159	-0.0152999	-0.306746	0.282423	-0.0526701	-0.0648343	-0.00212676	-0.594869	-0.0987697	0.0545544
20.49	0.361016	0.0536612	-0.0649408	0.781921	1.05657	0.555085	-0.548463	-0.152974	-0.206129	0.502585	0.118862	-0.0522226	-0.000753333	0.0117578	-0.00507088	-0.296088	0.301934	-0.0485142	-0.0931247	-0.00212676	-0.602783	-0.110363	0.0519533
20.5	0.370634	0.0632027	-0.0672206	0.784416	1.05742	0.55315	-0.547961	-0.169346	-0.205024	0.542553	0.0719191	-0.081715	-0.000753333	-0.000640139	0.00634951	-0.288804	0.325676	-0.0396122	-0.119979	-0.00212676	-0.605538	-0.122556	0.0493257
20.51	0.382785	0.0730592	-0.0692499	0.787141	1.05871	0.551154	-0.548531	-0.185527	-0.201785	0.583886	0.0181746	-0.114026	-0.000753333	-0.0172611	0.0183568	-0.283949	0.348363	-0.0288629	-0.140234	-0.00212676	-0.60927	-0.134656	0.0458948
